<svg width="135" height="207" viewBox="0 0 135 207" fill="none" xmlns="http://www.w3.org/2000/svg">
<path d="M79.408 134.331C75.6107 169.246 37.9464 189.468 6.746 173.344L2.66163e-06 169.858C2.66163e-06 169.858 28.4132 168.009 46 153.959C63.5867 139.908 81.849 111.887 81.849 111.887L79.408 134.331Z" fill="url(#paint0_linear_5_153)"/>
<path d="M54.7019 72.2999C59.2607 37.4767 97.3577 18.0816 128.199 34.883L134.867 38.5157C134.867 38.5157 106.42 39.7434 88.5306 53.4065C70.6412 67.0696 51.7713 94.6853 51.7713 94.6853L54.7019 72.2999Z" fill="url(#paint1_linear_5_153)"/>
<path d="M51.0666 89.3984C44.7878 59.32 66.6401 29.44 97.3669 29.44C97.3669 29.44 87.4927 33.9539 80.4285 57.9539C77.3009 68.5798 80.2631 93.4147 84.5357 117.794C89.9747 148.828 66.8743 178.44 35.3669 178.44C35.3669 178.44 52.1966 166.411 56.0098 136.8C57.4509 125.61 54.8546 107.544 51.0666 89.3984Z" fill="#45A1A1"/>
<defs>
<linearGradient id="paint0_linear_5_153" x1="39.9999" y1="159.821" x2="52.4999" y2="166.821" gradientUnits="userSpaceOnUse">
<stop stop-color="#315656"/>
<stop offset="1" stop-color="#223E3E"/>
</linearGradient>
<linearGradient id="paint1_linear_5_153" x1="95.9999" y1="44.3206" x2="84.9999" y2="35.8206" gradientUnits="userSpaceOnUse">
<stop stop-color="#315656"/>
<stop offset="1" stop-color="#223E3E"/>
</linearGradient>
</defs>
</svg>
