<svg width="135" height="199" viewBox="0 0 135 199" fill="none" xmlns="http://www.w3.org/2000/svg">
<path d="M79.408 126.331C75.6107 161.246 37.9464 181.468 6.74599 165.344L2.66163e-06 161.858C2.66163e-06 161.858 28.4132 160.009 46 145.959C63.5867 131.908 81.849 103.887 81.849 103.887L79.408 126.331Z" fill="url(#paint0_linear_5_199)"/>
<path d="M54.7019 64.2999C59.2607 29.4767 97.3577 10.0816 128.199 26.883L134.867 30.5157C134.867 30.5157 106.42 31.7434 88.5306 45.4065C70.6412 59.0696 51.7713 86.6853 51.7713 86.6853L54.7019 64.2999Z" fill="url(#paint1_linear_5_199)"/>
<path d="M51.0666 81.3984C44.7878 51.32 66.6401 21.44 97.3669 21.44C97.3669 21.44 87.4927 25.9539 80.4285 49.9539C77.3009 60.5798 80.2631 85.4147 84.5357 109.794C89.9747 140.828 66.8743 170.44 35.3669 170.44C35.3669 170.44 52.1966 158.411 56.0098 128.8C57.4509 117.61 54.8546 99.5443 51.0666 81.3984Z" fill="#BFBFBF"/>
<defs>
<linearGradient id="paint0_linear_5_199" x1="39.9999" y1="151.821" x2="52.4999" y2="158.821" gradientUnits="userSpaceOnUse">
<stop stop-color="#585858"/>
<stop offset="1" stop-color="#333333"/>
</linearGradient>
<linearGradient id="paint1_linear_5_199" x1="95.9999" y1="36.3206" x2="84.9999" y2="27.8206" gradientUnits="userSpaceOnUse">
<stop stop-color="#585858"/>
<stop offset="1" stop-color="#333333"/>
</linearGradient>
</defs>
</svg>
