<svg width="266" height="339" viewBox="0 0 266 339" fill="none" xmlns="http://www.w3.org/2000/svg">
<rect x="127" y="149" width="12" height="42" fill="#404040"/>
<path d="M82.8705 274.036L53.6853 260.944V226.444L82.8705 242.944V274.036Z" fill="#404040"/>
<path d="M53.6853 260.944L25.3705 274.036V242.944L53.6853 226.444V260.944Z" fill="#404040"/>
<path d="M82.8705 274.036L53.6853 290.444L25.3705 274.036L53.6853 260.944L82.8705 274.036Z" fill="#404040"/>
<path d="M161.87 231.036L132.685 217.944V183.444L161.87 199.944V231.036Z" fill="#404040"/>
<path d="M132.685 217.944L104.37 231.036V199.944L132.685 183.444V217.944Z" fill="#404040"/>
<path d="M161.87 231.036L132.685 247.444L104.37 231.036L132.685 217.944L161.87 231.036Z" fill="#404040"/>
<path d="M109.87 233.029L80.7682 251.444L74.8864 242.148L103.989 223.734L109.87 233.029Z" fill="#404040"/>
<path d="M104.87 209.944L43.3704 173.944L59.8704 164.444L116.87 196.444L104.87 209.944Z" fill="#404040"/>
<path d="M43.3704 173.944L43.3704 78.9438L59.8704 89.9438L59.8704 164.444L43.3704 173.944Z" fill="#404040"/>
<path d="M43.3704 78.9438L133.87 26.4438L133.87 47.9438L59.8704 89.9438L43.3704 78.9438Z" fill="#404040"/>
<path d="M133.87 47.9438L133.87 26.4438L182.37 56.9438L174.37 61.4438L174.37 71.4438L133.87 47.9438Z" fill="#404040"/>
<path d="M183 68.4074L212.185 81.5V116L183 99.5V68.4074Z" fill="#4DB8B8"/>
<path d="M212.185 81.5L240.5 68.4074V99.5L212.185 116V81.5Z" fill="#4DB8B8"/>
<path d="M183 68.4074L212.185 52L240.5 68.4074L212.185 81.5L183 68.4074Z" fill="#4DB8B8"/>
<path d="M104 111.407L133.185 124.5V159L104 142.5V111.407Z" fill="#4DB8B8"/>
<path d="M133.185 124.5L161.5 111.407V142.5L133.185 159V124.5Z" fill="#4DB8B8"/>
<path d="M104 111.407L133.185 95L161.5 111.407L133.185 124.5L104 111.407Z" fill="#4DB8B8"/>
<path d="M156 109.415L185.102 91L190.984 100.295L161.882 118.71L156 109.415Z" fill="#4DB8B8"/>
<path d="M161 132.5L222.5 168.5L206 178L149 146L161 132.5Z" fill="#4DB8B8"/>
<path d="M222.5 168.5L222.5 263.5L206 252.5L206 178L222.5 168.5Z" fill="#4DB8B8"/>
<path d="M222.5 263.5L132 316L132 294.5L206 252.5L222.5 263.5Z" fill="#4DB8B8"/>
<path d="M132 294.5L132 316L83.5 285.5L91.5 281L91.5 271L132 294.5Z" fill="#4DB8B8"/>
</svg>
