<svg width="52" height="94" viewBox="0 0 52 94" fill="none" xmlns="http://www.w3.org/2000/svg">
<path d="M47.9673 7.04982C48.8736 6.52657 50.0451 6.78474 50.5152 7.71967C51.4651 9.60843 52 11.7417 52 14C52 21.732 45.732 28 38 28H14C13.3189 28 13.1409 27.1567 13.7307 26.8161L47.9673 7.04982ZM38 0C38.7679 3.83912e-08 39.5213 0.0619152 40.2556 0.180975C41.8526 0.439917 41.9894 2.41883 40.5884 3.22776L5.65012 23.4C4.8824 23.8432 3.9028 23.7373 3.32864 23.0619C1.25272 20.6198 0 17.4563 0 14C0 6.26801 6.26801 3.86555e-07 14 0H38Z" fill="#4DB8B8"/>
<path d="M38.2849 59.7338C38.9174 60.099 38.7303 61 38 61H14C6.26801 61 0 54.732 0 47C0 44.7094 0.550097 42.5472 1.52541 40.6385C1.99959 39.7105 3.16596 39.4571 4.06845 39.9782L38.2849 59.7338ZM38 33C45.732 33 52 39.268 52 47C52 50.4229 50.7707 53.5581 48.7305 55.9902C48.1579 56.6727 47.173 56.7822 46.4014 56.3368L11.5281 36.2023C10.1215 35.3901 10.2672 33.405 11.8729 33.1604C12.5666 33.0548 13.2769 33 14 33H38Z" fill="#4DB8B8"/>
<path d="M47.213 71.7512C48.0482 71.2689 49.1223 71.4435 49.6572 72.2459C51.1371 74.4658 52 77.132 52 80C52 87.732 45.732 94 38 94H14C12.3656 94 12.0777 92.0378 13.4931 91.2206L47.213 71.7512ZM38 66C39.5872 66 39.8725 67.9069 38.4979 68.7004L4.74607 88.1868C3.90736 88.671 2.82844 88.4926 2.29612 87.6835C0.844837 85.4778 0 82.8377 0 80C0 72.268 6.26801 66 14 66H38Z" fill="#4DB8B8"/>
</svg>
